# xmcd
#
# Track frame offsets: 
#        150
#        15415
#        33042
#        50332
#        66797
#        86262
#        102989
#        120541
#        138131
#        156771
#
# Disc length: 2302 seconds
#
# Revision: 0
# Processed by: cddbd v1.5.2PL0 Copyright (c) Steve Scherf et al.
# Submitted via: ExactAudioCopy v0.99pb4
#
DISCID=6c08fc0a
DTITLE=เอม อภัสรา - อกหักป้ายแดง
DYEAR=2008
DGENRE=Country
TTITLE0=อกหักป้ายแดง
TTITLE1=คำขอคนพ่าย
TTITLE2=คือเก่าแม้เฮาไกล
TTITLE3=ฝากใจไปกับจันทร์
TTITLE4=ขอตายก่อนอ้ายแต่ง
TTITLE5=แรงใจไกลบ้าน
TTITLE6=เคี'ให้เพราะใจรัก
TTITLE7=รอรักคนลืม
TTITLE8=นางร้ายในสายตา
TTITLE9=บ่เป็นหยังอ้าย
EXTD=
EXTT0=
EXTT1=
EXTT2=
EXTT3=
EXTT4=
EXTT5=
EXTT6=
EXTT7=
EXTT8=
EXTT9=
PLAYORDER=
